<svg width="336" height="120" viewBox="0 0 336 120" fill="none" xmlns="http://www.w3.org/2000/svg">
<path d="M22.6618 69.717C50.6643 68.9385 78.6396 68.2105 106.649 67.1749C108.591 67.1154 111.029 65.0408 112.192 63.2553C139.666 20.4902 179.48 0.0618282 230.171 0.785825C238.597 0.905734 247.103 3.67876 255.328 9.04065C266.194 16.0919 268.542 28.9125 261.281 39.5383C254.938 48.8331 245.632 54.1112 235.655 58.4391C213.531 67.944 189.934 72.0185 166.257 75.2668C151.251 77.3314 136.141 78.4917 120.63 80.1524C120.482 87.1203 125.204 94.699 131.385 97.3893C143.081 102.54 149.794 102.908 160.05 104.148C192.237 108.047 224.003 104.083 254.892 95.5338C277.883 89.1733 300.377 81.1741 323.084 73.8772C325.067 73.253 327.031 72.4223 328.932 71.9497C331.901 71.2062 334.27 71.5736 335.472 73.855C337.017 75.8656 334.478 78.7344 332.99 80.148C330.544 82.4797 327.541 84.3798 324.452 85.7108C275.919 107.167 225.651 121.485 171.748 119.154C159.92 118.63 148.013 116.302 136.513 113.345C120.008 109.052 108.734 99.1045 107.585 80.5371C80.9039 80.3334 54.61 80.1434 27.8504 79.9626C35.4899 84.0943 42.722 88.0057 50.0049 91.9445C51.2273 92.6056 52.5315 93.1152 53.6992 93.8773C56.8731 95.9201 61.6081 97.6326 59.3468 102.544C57.1402 107.354 52.6819 105.008 49.7516 103.489C34.8417 95.8819 19.9628 88.096 5.43519 79.7821C-0.492632 76.3804 -1.26569 70.8721 4.07348 66.8423C19.4105 55.0373 35.3749 43.8979 51.3356 32.8871C52.8132 31.859 56.5848 31.0926 58.7232 34.0764C60.1523 36.546 58.2445 39.9518 56.6813 41.26C47.2238 49.1315 37.3898 56.6037 27.6304 64.1815C25.9107 65.5355 24.0891 66.8344 22.3185 68.1609C19.0105 69.8957 20.4623 69.7673 22.6618 69.717ZM123.284 65.1426C122.148 66.8776 126.182 65.992 126.804 65.9369C159.366 63.0564 191.751 59.1661 222.706 48.3031C230.986 45.4072 239.053 40.9599 246.057 35.677C255.336 28.6225 253.511 19.217 242.264 15.5487C234.987 13.1797 226.938 11.6322 219.326 11.9531C186.991 13.1949 152.22 30.8694 136.388 48.2148C130.404 54.8977 129.257 57.0183 123.284 65.1426Z" fill="#D2A200"/>
</svg>
